<svg width="32" height="27" viewBox="0 0 32 27" fill="none" xmlns="http://www.w3.org/2000/svg">
<path 
d="M28.6867 3.21018C27.9537 2.50949 27.0833 1.95365 26.1254 1.57442C25.1675 1.19519 24.1407 1 23.1038 1C22.0669 1 21.0402 1.19519 20.0822 1.57442C19.1243 1.95365 18.254 2.50949 17.5209 3.21018L15.9996 4.66368L14.4783 3.21018C12.9976 1.7955 10.9894 1.00073 8.89541 1.00073C6.80142 1.00073 4.79319 1.7955 3.31251 3.21018C1.83184 4.62487 1 6.54359 1 8.54426C1 10.5449 1.83184 12.4637 3.31251 13.8783L4.83382 15.3318L15.9996 26L27.1654 15.3318L28.6867 13.8783C29.4201 13.178 30.0019 12.3464 30.3988 11.4312C30.7957 10.5159 31 9.53496 31 8.54426C31 7.55356 30.7957 6.57258 30.3988 5.65734C30.0019 4.7421 29.4201 3.91054 28.6867 3.21018Z" 
stroke="white" stroke-width="2" stroke-linecap="round" stroke-linejoin="round"/>
</svg>
